<svg xmlns="http://www.w3.org/2000/svg" viewBox="0 0 284.821 284.821"><path d="M142.403 228.084c-7.725 0-14.987-3.014-20.45-8.471L8.455 106.102c-11.273-11.273-11.273-29.621 0-40.894 5.463-5.463 12.725-8.471 20.457-8.471s14.994 3.008 20.45 8.471l93.041 93.054 93.048-93.054c5.463-5.463 12.719-8.471 20.45-8.471s14.987 3.008 20.45 8.471c5.469 5.463 8.471 12.725 8.471 20.45s-3.008 14.987-8.471 20.45L162.859 219.594c-5.469 5.482-12.738 8.49-20.456 8.49zM28.911 69.591a15.992 15.992 0 00-11.369 4.704c-6.266 6.266-6.266 16.459 0 22.719L131.04 210.519c6.016 6.016 16.433 6.093 22.52.186l113.69-113.69c3.04-3.04 4.704-7.07 4.704-11.363s-1.671-8.323-4.704-11.363c-6.073-6.067-16.646-6.067-22.719 0L142.403 176.437 40.274 74.296a15.975 15.975 0 00-11.363-4.705z"/></svg>